# Created by MKDS Course Modifier
mtllib koopa_key.mtl
g polygon0
usemtl mat_koopa_key
v 2.139648 2.133545 0.6586914
v 2.141846 2.139404 -0.6630859
v 1.493652 3.444092 0.6120605
v 1.49585 3.449463 -0.6069336
v 0.8278809 3.86377 0.5891113
v 0.8300781 3.869141 -0.5827637
v -0.8125 3.86377 0.5864258
v -0.8105469 3.869141 -0.5854492
v -1.478271 3.444092 0.6069336
v -1.476074 3.449463 -0.6120605
v -2.124268 2.133545 0.6513672
v -2.12207 2.139404 -0.6704102
vn 0.8964844 0.4414063 0.00390625
vn 0.8964844 0.4414063 0.00390625
vn 0.8027344 0.5976563 0.00390625
vn 0.6777344 0.7363281 0.00390625
vn 0.3691406 0.9296875 0.00390625
vn 0.1835938 0.9824219 0.00390625
vn -0.2324219 0.9726563 0.00390625
vn -0.3691406 0.9296875 0.00390625
vn -0.6777344 0.7363281 0.001953125
vn -0.8027344 0.5976563 0.001953125
vn -0.8964844 0.4414063 0
vn -0.8964844 0.4414063 0
vt NaN 0
vt NaN 0
vt NaN 0
vt NaN 0
vt NaN 0
vt NaN 0
vt NaN 0
vt NaN 0
vt NaN 0
vt NaN 0
vt NaN 0
vt NaN 0
f 1/1/1 2/2/2 3/3/3
f 2/2/2 4/4/4 3/3/3
f 3/3/3 4/4/4 5/5/5
f 4/4/4 6/6/6 5/5/5
f 5/5/5 6/6/6 7/7/7
f 6/6/6 8/8/8 7/7/7
f 7/7/7 8/8/8 9/9/9
f 8/8/8 10/10/10 9/9/9
f 9/9/9 10/10/10 11/11/11
f 10/10/10 12/12/12 11/11/11
v -1.078369 -0.6594238 0.1611328
v -1.078369 -1.162598 0.1589355
v -0.4523926 -0.510498 0.3632813
v -0.4523926 -1.313477 0.3596191
v 0.4685059 -1.237793 0.3615723
v -0.4523926 -1.570313 0.3583984
v -0.4523926 -2.578369 0.3540039
v -1.465332 -2.577393 0.1518555
vn -0.3066406 -0.00390625 0.9511719
vn -0.3066406 -0.00390625 0.9511719
vn -0.125 -0.00390625 0.9921875
vn -0.125 -0.00390625 0.9921875
vn -0.001953125 -0.00390625 0.9980469
vn -0.125 -0.00390625 0.9921875
vn -0.06640625 -0.00390625 0.9980469
vn -0.1953125 -0.00390625 0.9804688
vt NaN 0
vt NaN 0
vt NaN 0
vt NaN 0
vt NaN 0
vt NaN 0
vt NaN 0
vt NaN 0
f 13/13/13 14/14/14 15/15/15
f 14/14/14 16/16/16 15/15/15
f 15/15/15 16/16/16 17/17/17
f 16/16/16 18/18/18 17/17/17
f 17/17/17 18/18/18 19/19/19
f 18/18/18 20/20/20 19/19/19
v -2.124268 2.133545 0.6513672
v -2.12207 2.139404 -0.6704102
v -0.7268066 1.370605 0.9624023
v -0.7233887 1.37915 -0.9836426
v 0.7409668 1.370605 0.9650879
v 0.7443848 1.37915 -0.9812012
v 2.139648 2.133545 0.6586914
v 2.141846 2.139404 -0.6630859
vn -0.4785156 -0.8789063 -0.00390625
vn -0.4785156 -0.8789063 -0.00390625
vn -0.328125 -0.9453125 -0.00390625
vn -0.1640625 -0.9863281 -0.00390625
vn 0.1640625 -0.9863281 -0.00390625
vn 0.328125 -0.9453125 -0.00390625
vn 0.4785156 -0.8789063 -0.00390625
vn 0.4785156 -0.8789063 -0.00390625
vt NaN 0
vt NaN 0
vt NaN 0
vt NaN 0
vt NaN 0
vt NaN 0
vt NaN 0
vt NaN 0
f 21/21/21 22/22/22 23/23/23
f 22/22/22 24/24/24 23/23/23
f 23/23/23 24/24/24 25/25/25
f 24/24/24 26/26/26 25/25/25
f 25/25/25 26/26/26 27/27/27
f 26/26/26 28/28/28 27/27/27
v -1.077637 -1.161133 -0.2038574
v -1.077637 -0.657959 -0.2016602
v -0.4509277 -1.310059 -0.4040527
v -0.4509277 -0.5070801 -0.4003906
v 0.4697266 -1.234375 -0.4020996
v 0.4697266 1.576904 -0.3894043
vn -0.3027344 0.00390625 -0.953125
vn -0.3027344 0.00390625 -0.953125
vn -0.1523438 0.00390625 -0.9882813
vn -0.07421875 0.00390625 -0.9980469
vn 0.001953125 0.00390625 -1
vn 0.001953125 0.00390625 -1
vt NaN 0
vt NaN 0
vt NaN 0
vt NaN 0
vt NaN 0
vt NaN 0
f 29/29/29 30/30/30 31/31/31
f 30/30/30 32/32/32 31/31/31
f 31/31/31 32/32/32 33/33/33
f 32/32/32 34/34/34 33/33/33
v -1.465332 -2.577393 0.1518555
v -1.4646 -2.575684 -0.2109375
v -0.4523926 -2.578369 0.3540039
v -0.4509277 -2.574951 -0.409668
v 0.4685059 -2.578369 0.3554688
v 0.4697266 -2.574951 -0.407959
vn 0 -1 -0.00390625
vn 0 -1 -0.00390625
vn 0 -1 -0.00390625
vn 0 -1 -0.00390625
vn 0 -1 -0.00390625
vn 0 -1 -0.00390625
vt NaN 0
vt NaN 0
vt NaN 0
vt NaN 0
vt NaN 0
vt NaN 0
f 35/35/35 36/36/36 37/37/37
f 36/36/36 38/38/38 37/37/37
f 37/37/37 38/38/38 39/39/39
f 38/38/38 40/40/40 39/39/39
v 0.4685059 -2.578369 0.3554688
v 0.4697266 -2.574951 -0.407959
v 0.4685059 -1.237793 0.3615723
v 0.4697266 -1.234375 -0.4020996
v 0.4685059 1.573486 0.3742676
v 0.4697266 1.576904 -0.3894043
vn 0.9980469 0 0.001953125
vn 0.9980469 0 0.001953125
vn 0.9980469 0 0.001953125
vn 0.9980469 0 0.001953125
vn 0.9980469 0 0.001953125
vn 0.9980469 0 0.001953125
vt NaN 0
vt NaN 0
vt NaN 0
vt NaN 0
vt NaN 0
vt NaN 0
f 41/41/41 42/42/42 43/43/43
f 42/42/42 44/44/44 43/43/43
f 43/43/43 44/44/44 45/45/45
f 44/44/44 46/46/46 45/45/45
v -0.7233887 1.37915 -0.9836426
v 0.8300781 3.869141 -0.5827637
v 0.7443848 1.37915 -0.9812012
v 1.49585 3.449463 -0.6069336
v 2.141846 2.139404 -0.6630859
vn -0.05273438 0.1484375 -0.9882813
vn 0.02148438 0.1582031 -0.9882813
vn 0.109375 0.1386719 -0.984375
vn 0.109375 0.1386719 -0.984375
vn 0.109375 0.1386719 -0.984375
vt NaN 0
vt NaN 0
vt NaN 0
vt NaN 0
vt NaN 0
f 47/47/47 48/48/48 49/49/49
f 48/48/48 50/50/50 49/49/49
f 49/49/49 50/50/50 51/51/51
v -2.12207 2.139404 -0.6704102
v -1.476074 3.449463 -0.6120605
v -0.7233887 1.37915 -0.9836426
v -0.8105469 3.869141 -0.5854492
v 0.8300781 3.869141 -0.5827637
vn -0.1074219 0.1386719 -0.984375
vn -0.1074219 0.1386719 -0.984375
vn -0.05273438 0.1484375 -0.9882813
vn -0.05273438 0.1484375 -0.9882813
vn 0.02148438 0.1582031 -0.9882813
vt NaN 0
vt NaN 0
vt NaN 0
vt NaN 0
vt NaN 0
f 52/52/52 53/53/53 54/54/54
f 53/53/53 55/55/55 54/54/54
f 54/54/54 55/55/55 56/56/56
v -1.722168 2.777588 -0.5905762
v -1.902832 2.390137 -0.008056641
v -2.609375 3.518799 -0.4150391
v -2.898438 3.439697 -0.005126953
v -2.011963 4.450928 0.0009765625
vn -0.5917969 -0.5742188 -0.5664063
vn -0.5917969 -0.5742188 -0.5664063
vn -0.7695313 -0.21875 -0.5996094
vn -0.8183594 0.02148438 -0.5722656
vn -0.6972656 0.6132813 -0.3730469
vt NaN 0
vt NaN 0
vt NaN 0
vt NaN 0
vt NaN 0
f 57/57/57 58/58/58 59/59/59
f 58/58/58 60/60/60 59/59/59
f 59/59/59 60/60/60 61/61/61
v -1.432373 3.399414 -0.3640137
v -1.722168 2.777588 -0.5905762
v -2.143311 3.643066 -0.2568359
v -2.609375 3.518799 -0.4150391
v -2.011963 4.450928 0.0009765625
vn 0.0234375 0.3515625 -0.9355469
vn 0.08203125 0.3925781 -0.9160156
vn 0.1386719 0.3496094 -0.9257813
vn 0.2167969 0.3457031 -0.9121094
vn 0.2480469 0.2578125 -0.9335938
vt NaN 0
vt NaN 0
vt NaN 0
vt NaN 0
vt NaN 0
f 62/62/62 63/63/63 64/64/64
f 63/63/63 65/65/65 64/64/64
f 64/64/64 65/65/65 66/66/66
v 2.029541 4.450684 0.008056641
v 2.628418 3.518799 -0.4060059
v 2.161621 3.643066 -0.2492676
v 1.741699 2.777588 -0.5844727
v 1.450928 3.399414 -0.3591309
vn -0.2460938 0.2578125 -0.9355469
vn -0.2148438 0.3457031 -0.9140625
vn -0.1347656 0.3496094 -0.9277344
vn -0.08007813 0.3925781 -0.9160156
vn 0.0234375 0.3515625 -0.9355469
vt NaN 0
vt NaN 0
vt NaN 0
vt NaN 0
vt NaN 0
f 67/67/67 68/68/68 69/69/69
f 68/68/68 70/70/70 69/69/69
f 69/69/69 70/70/70 71/71/71
v 1.739746 2.772461 0.5844727
v 1.920166 2.390137 -0.001464844
v 2.626953 3.515137 0.4155273
v 2.916016 3.439697 0.004882813
v 2.029541 4.450684 0.008056641
vn 0.5917969 -0.5800781 0.5605469
vn 0.5917969 -0.5800781 0.5605469
vn 0.7695313 -0.2246094 0.5976563
vn 0.8183594 0.01757813 0.5742188
vn 0.6972656 0.609375 0.3789063
vt NaN 0
vt NaN 0
vt NaN 0
vt NaN 0
vt NaN 0
f 72/72/72 73/73/73 74/74/74
f 73/73/73 75/75/75 74/74/74
f 74/74/74 75/75/75 76/76/76
v 1.449707 3.39624 0.3635254
v 1.739746 2.772461 0.5844727
v 2.160889 3.640625 0.2585449
v 2.626953 3.515137 0.4155273
v 2.029541 4.450684 0.008056641
vn 0.02148438 0.3417969 0.9394531
vn -0.08203125 0.3847656 0.9199219
vn -0.1386719 0.3417969 0.9296875
vn -0.2167969 0.3378906 0.9160156
vn -0.2480469 0.25 0.9355469
vt NaN 0
vt NaN 0
vt NaN 0
vt NaN 0
vt NaN 0
f 77/77/77 78/78/78 79/79/79
f 78/78/78 80/80/80 79/79/79
f 79/79/79 80/80/80 81/81/81
v 0.4685059 -1.237793 0.3615723
v 0.4685059 1.573486 0.3742676
v -0.4523926 -0.510498 0.3632813
v -0.4523926 1.573486 0.3725586
vn -0.001953125 -0.00390625 0.9980469
vn -0.001953125 -0.00390625 0.9980469
vn -0.125 -0.00390625 0.9921875
vn -0.001953125 -0.00390625 0.9980469
vt NaN 0
vt NaN 0
vt NaN 0
vt NaN 0
f 82/82/82 83/83/83 84/84/84
f 83/83/83 85/85/85 84/84/84
v -0.4509277 -1.310059 -0.4040527
v 0.4697266 -1.234375 -0.4020996
v -0.4509277 -1.566895 -0.4050293
v -0.4509277 -2.574951 -0.409668
vn -0.1523438 0.00390625 -0.9882813
vn 0.001953125 0.00390625 -1
vn -0.07421875 0.00390625 -0.9980469
vn -0.07421875 0.00390625 -0.9980469
vt NaN 0
vt NaN 0
vt NaN 0
vt NaN 0
f 86/86/86 87/87/87 88/88/88
f 87/87/87 89/89/89 88/88/88
v -1.465332 -1.845703 0.1550293
v -1.4646 -1.843994 -0.2077637
v -1.465332 -2.577393 0.1518555
v -1.4646 -2.575684 -0.2109375
vn -1 0 -0.001953125
vn -1 0 -0.001953125
vn -1 0 -0.001953125
vn -1 0 -0.001953125
vt NaN 0
vt NaN 0
vt NaN 0
vt NaN 0
f 90/90/90 91/91/91 92/92/92
f 91/91/91 93/93/93 92/92/92
v -0.4523926 -1.313477 0.3596191
v -0.4509277 -1.310059 -0.4040527
v -0.4523926 -1.570313 0.3583984
v -0.4509277 -1.566895 -0.4050293
vn -1 0 -0.001953125
vn -1 0 -0.001953125
vn -1 0 -0.001953125
vn -1 0 -0.001953125
vt NaN 0
vt NaN 0
vt NaN 0
vt NaN 0
f 94/94/94 95/95/95 96/96/96
f 95/95/95 97/97/97 96/96/96
v -1.078369 -0.6594238 0.1611328
v -1.077637 -0.657959 -0.2016602
v -1.078369 -1.162598 0.1589355
v -1.077637 -1.161133 -0.2038574
vn -1 0 -0.001953125
vn -1 0 -0.001953125
vn -1 0 -0.001953125
vn -1 0 -0.001953125
vt NaN 0
vt NaN 0
vt NaN 0
vt NaN 0
f 98/98/98 99/99/99 100/100/100
f 99/99/99 101/101/101 100/100/100
v -0.4523926 1.573486 0.3725586
v -0.4509277 1.576904 -0.3911133
v -0.4523926 -0.510498 0.3632813
v -0.4509277 -0.5070801 -0.4003906
vn -1 0 -0.001953125
vn -1 0 -0.001953125
vn -1 0 -0.001953125
vn -1 0 -0.001953125
vt NaN 0
vt NaN 0
vt NaN 0
vt NaN 0
f 102/102/102 103/103/103 104/104/104
f 103/103/103 105/105/105 104/104/104
v -1.4646 -1.843994 -0.2077637
v -0.4509277 -1.566895 -0.4050293
v -1.4646 -2.575684 -0.2109375
v -0.4509277 -2.574951 -0.409668
vn -0.1523438 0.00390625 -0.9882813
vn -0.07421875 0.00390625 -0.9980469
vn -0.1523438 0.00390625 -0.9882813
vn -0.07421875 0.00390625 -0.9980469
vt NaN 0
vt NaN 0
vt NaN 0
vt NaN 0
f 106/106/106 107/107/107 108/108/108
f 107/107/107 109/109/109 108/108/108
v -0.4523926 -1.570313 0.3583984
v -0.4509277 -1.566895 -0.4050293
v -1.465332 -1.845703 0.1550293
v -1.4646 -1.843994 -0.2077637
vn -0.2324219 0.9726563 0.00390625
vn -0.2324219 0.9726563 0.00390625
vn -0.2324219 0.9726563 0.00390625
vn -0.2324219 0.9726563 0.00390625
vt NaN 0
vt NaN 0
vt NaN 0
vt NaN 0
f 110/110/110 111/111/111 112/112/112
f 111/111/111 113/113/113 112/112/112
v -0.4509277 -1.310059 -0.4040527
v -0.4523926 -1.313477 0.3596191
v -1.077637 -1.161133 -0.2038574
v -1.078369 -1.162598 0.1589355
vn -0.2324219 -0.9726563 -0.00390625
vn -0.2324219 -0.9726563 -0.00390625
vn -0.2324219 -0.9726563 -0.00390625
vn -0.2324219 -0.9726563 -0.00390625
vt NaN 0
vt NaN 0
vt NaN 0
vt NaN 0
f 114/114/114 115/115/115 116/116/116
f 115/115/115 117/117/117 116/116/116
v -0.4523926 -0.510498 0.3632813
v -0.4509277 -0.5070801 -0.4003906
v -1.078369 -0.6594238 0.1611328
v -1.077637 -0.657959 -0.2016602
vn -0.2324219 0.9726563 0.00390625
vn -0.2324219 0.9726563 0.00390625
vn -0.2324219 0.9726563 0.00390625
vn -0.2324219 0.9726563 0.00390625
vt NaN 0
vt NaN 0
vt NaN 0
vt NaN 0
f 118/118/118 119/119/119 120/120/120
f 119/119/119 121/121/121 120/120/120
v 1.450928 3.399414 -0.3591309
v 1.449707 3.39624 0.3635254
v 2.161621 3.643066 -0.2492676
v 2.160889 3.640625 0.2585449
vn -0.3691406 0.9296875 0.00390625
vn -0.3691406 0.9296875 0.00390625
vn -0.3691406 0.9296875 0.00390625
vn -0.3691406 0.9296875 0.00390625
vt NaN 0
vt NaN 0
vt NaN 0
vt NaN 0
f 122/122/122 123/123/123 124/124/124
f 123/123/123 125/125/125 124/124/124
v 0.8278809 3.86377 0.5891113
v 0.7409668 1.370605 0.9650879
v 1.493652 3.444092 0.6120605
v 2.139648 2.133545 0.6586914
vn 0.05273438 0.1386719 0.9882813
vn 0.05273438 0.1386719 0.9882813
vn 0.1074219 0.1289063 0.9863281
vn 0.1074219 0.1289063 0.9863281
vt NaN 0
vt NaN 0
vt NaN 0
vt NaN 0
f 126/126/126 127/127/127 128/128/128
f 127/127/127 129/129/129 128/128/128
v 1.741699 2.777588 -0.5844727
v 2.628418 3.518799 -0.4060059
v 1.920166 2.390137 -0.001464844
v 2.916016 3.439697 0.004882813
vn 0.6035156 -0.5761719 -0.5507813
vn 0.7714844 -0.21875 -0.5976563
vn 0.6035156 -0.5761719 -0.5507813
vn 0.8203125 0.02148438 -0.5703125
vt NaN 0
vt NaN 0
vt NaN 0
vt NaN 0
f 130/130/130 131/131/131 132/132/132
f 131/131/131 133/133/133 132/132/132
v -0.7268066 1.370605 0.9624023
v 0.7409668 1.370605 0.9650879
v -0.8125 3.86377 0.5864258
v 0.8278809 3.86377 0.5891113
vn -0.109375 0.1289063 0.9863281
vn 0.05273438 0.1386719 0.9882813
vn -0.02148438 0.1484375 0.9882813
vn 0.05273438 0.1386719 0.9882813
vt NaN 0
vt NaN 0
vt NaN 0
vt NaN 0
f 134/134/134 135/135/135 136/136/136
f 135/135/135 137/137/137 136/136/136
v -1.433594 3.39624 0.3583984
v -2.144043 3.640869 0.2509766
v -1.724365 2.772461 0.5783691
v -2.61084 3.515137 0.4064941
vn 0.02148438 0.3417969 0.9394531
vn 0.1347656 0.3417969 0.9296875
vn 0.08007813 0.3847656 0.9199219
vn 0.2148438 0.3378906 0.9160156
vt NaN 0
vt NaN 0
vt NaN 0
vt NaN 0
f 138/138/138 139/139/139 140/140/140
f 139/139/139 141/141/141 140/140/140
v -1.433594 3.39624 0.3583984
v -1.432373 3.399414 -0.3640137
v -2.144043 3.640869 0.2509766
v -2.143311 3.643066 -0.2568359
vn 0.3691406 0.9296875 0.00390625
vn 0.3691406 0.9296875 0.00390625
vn 0.3691406 0.9296875 0.00390625
vn 0.3691406 0.9296875 0.00390625
vt NaN 0
vt NaN 0
vt NaN 0
vt NaN 0
f 142/142/142 143/143/143 144/144/144
f 143/143/143 145/145/145 144/144/144
v -2.124268 2.133545 0.6513672
v -0.7268066 1.370605 0.9624023
v -1.478271 3.444092 0.6069336
v -0.8125 3.86377 0.5864258
vn -0.109375 0.1289063 0.9863281
vn -0.109375 0.1289063 0.9863281
vn -0.109375 0.1289063 0.9863281
vn -0.02148438 0.1484375 0.9882813
vt NaN 0
vt NaN 0
vt NaN 0
vt NaN 0
f 146/146/146 147/147/147 148/148/148
f 147/147/147 149/149/149 148/148/148
v -1.724365 2.772461 0.5783691
v -2.61084 3.515137 0.4064941
v -1.902832 2.390137 -0.008056641
v -2.898438 3.439697 -0.005126953
vn -0.6035156 -0.5820313 0.546875
vn -0.7714844 -0.2246094 0.5957031
vn -0.6035156 -0.5820313 0.546875
vn -0.8203125 0.01757813 0.5703125
vt NaN 0
vt NaN 0
vt NaN 0
vt NaN 0
f 150/150/150 151/151/151 152/152/152
f 151/151/151 153/153/153 152/152/152
v -0.4509277 -0.5070801 -0.4003906
v -0.4509277 1.576904 -0.3911133
v 0.4697266 1.576904 -0.3894043
v -2.61084 3.515137 0.4064941
v -2.144043 3.640869 0.2509766
v -2.011963 4.450928 0.0009765625
v -2.144043 3.640869 0.2509766
v -2.143311 3.643066 -0.2568359
v -2.011963 4.450928 0.0009765625
v -2.898438 3.439697 -0.005126953
v -2.61084 3.515137 0.4064941
v -2.011963 4.450928 0.0009765625
v 2.916016 3.439697 0.004882813
v 2.628418 3.518799 -0.4060059
v 2.029541 4.450684 0.008056641
v -0.4523926 -1.570313 0.3583984
v -1.465332 -1.845703 0.1550293
v -1.465332 -2.577393 0.1518555
v 2.161621 3.643066 -0.2492676
v 2.160889 3.640625 0.2585449
v 2.029541 4.450684 0.008056641
v 0.4697266 -2.574951 -0.407959
v -0.4509277 -2.574951 -0.409668
v 0.4697266 -1.234375 -0.4020996
v 0.4685059 -2.578369 0.3554688
v 0.4685059 -1.237793 0.3615723
v -0.4523926 -2.578369 0.3540039
vn -0.07421875 0.00390625 -0.9980469
vn 0.001953125 0.00390625 -1
vn 0.001953125 0.00390625 -1
vn 0.2148438 0.3378906 0.9160156
vn 0.1347656 0.3417969 0.9296875
vn 0.2460938 0.25 0.9375
vn 0.9863281 -0.1601563 0.001953125
vn 0.9863281 -0.1601563 0.001953125
vn 0.9863281 -0.1601563 0.001953125
vn -0.8203125 0.01757813 0.5703125
vn -0.7714844 -0.2246094 0.5957031
vn -0.6972656 0.609375 0.375
vn 0.8203125 0.02148438 -0.5703125
vn 0.7714844 -0.21875 -0.5976563
vn 0.6972656 0.6132813 -0.3710938
vn -0.125 -0.00390625 0.9921875
vn -0.1953125 -0.00390625 0.9804688
vn -0.1953125 -0.00390625 0.9804688
vn -0.9863281 -0.1601563 -0.001953125
vn -0.9863281 -0.1601563 -0.001953125
vn -0.9863281 -0.1601563 -0.001953125
vn 0.001953125 0.00390625 -1
vn -0.07421875 0.00390625 -0.9980469
vn 0.001953125 0.00390625 -1
vn -0.001953125 -0.00390625 0.9980469
vn -0.001953125 -0.00390625 0.9980469
vn -0.06640625 -0.00390625 0.9980469
vt NaN 0
vt NaN 0
vt NaN 0
vt NaN 0
vt NaN 0
vt NaN 0
vt NaN 0
vt NaN 0
vt NaN 0
vt NaN 0
vt NaN 0
vt NaN 0
vt NaN 0
vt NaN 0
vt NaN 0
vt NaN 0
vt NaN 0
vt NaN 0
vt NaN 0
vt NaN 0
vt NaN 0
vt NaN 0
vt NaN 0
vt NaN 0
vt NaN 0
vt NaN 0
vt NaN 0
f 154/154/154 155/155/155 156/156/156
f 157/157/157 158/158/158 159/159/159
f 160/160/160 161/161/161 162/162/162
f 163/163/163 164/164/164 165/165/165
f 166/166/166 167/167/167 168/168/168
f 169/169/169 170/170/170 171/171/171
f 172/172/172 173/173/173 174/174/174
f 175/175/175 176/176/176 177/177/177
f 178/178/178 179/179/179 180/180/180
